<svg width="110" height="110" fill="none" xmlns="http://www.w3.org/2000/svg"><g clip-path="url(#clip0)"><path d="M94.96 7l-6.28 72.816A54.75 54.75 0 0155 91.332a54.75 54.75 0 01-33.68-11.516L15.04 7h79.92z" fill="#006BC0"/><path d="M55 13.846v76.046l26.269-7.417 5.86-68.63h-32.13z" fill="#0096DC"/><path d="M78.211 43.59H59.265l19.797-10.075.856-10.128H30.08l.872 10.326H50.96L31.764 43.31l.893 10.578h34.24l-1.122 12.6-10.776 2.918-11.224-3.143-.28-7.857H33.037l1.308 15.49L55 79.733l20.652-5.836 2.56-30.308-.001.002z" fill="#fff"/><path d="M51.4 106.991c-.094.986-.458 1.756-1.092 2.311-.635.55-1.48.825-2.533.825-.736 0-1.386-.174-1.949-.521-.558-.351-.99-.848-1.295-1.491-.304-.643-.463-1.39-.476-2.241v-.863c0-.872.155-1.64.464-2.304.309-.665.75-1.177 1.326-1.537.58-.359 1.249-.539 2.006-.539 1.02 0 1.84.277 2.463.831.622.555.984 1.338 1.085 2.349h-1.6c-.075-.664-.27-1.143-.583-1.435-.31-.296-.764-.444-1.365-.444-.698 0-1.236.256-1.612.768-.373.508-.563 1.255-.572 2.241v.819c0 .998.178 1.76.534 2.285.36.525.884.787 1.574.787.63 0 1.104-.142 1.422-.425.317-.284.518-.756.603-1.416h1.6zm6.27.629c0-.407-.143-.72-.43-.94-.284-.22-.798-.442-1.543-.666-.745-.225-1.338-.474-1.778-.749-.842-.529-1.263-1.219-1.263-2.07 0-.744.303-1.358.908-1.841.61-.482 1.399-.723 2.368-.723.643 0 1.216.118 1.72.355.503.237.9.576 1.187 1.016.288.436.431.92.431 1.454h-1.6c0-.483-.151-.859-.456-1.13-.3-.275-.732-.413-1.295-.413-.525 0-.933.112-1.225.337-.288.224-.432.537-.432.939 0 .339.157.622.47.851.313.224.83.444 1.549.66.72.211 1.297.455 1.733.73.435.271.755.584.958.939.203.351.305.764.305 1.238 0 .77-.296 1.384-.889 1.841-.588.453-1.388.679-2.4.679a4.578 4.578 0 01-1.846-.368c-.559-.25-.995-.593-1.308-1.029-.309-.435-.463-.943-.463-1.523h1.606c0 .525.173.931.52 1.219.347.288.844.431 1.492.431.558 0 .977-.112 1.257-.336.283-.229.425-.529.425-.901zm7.847 0c0-.407-.144-.72-.432-.94-.284-.22-.798-.442-1.542-.666-.745-.225-1.338-.474-1.778-.749-.842-.529-1.263-1.219-1.263-2.07 0-.744.302-1.358.908-1.841.609-.482 1.398-.723 2.367-.723.644 0 1.217.118 1.72.355.504.237.9.576 1.188 1.016.287.436.431.92.431 1.454h-1.6c0-.483-.152-.859-.456-1.13-.3-.275-.733-.413-1.295-.413-.525 0-.934.112-1.225.337-.288.224-.432.537-.432.939 0 .339.157.622.47.851.313.224.83.444 1.548.66.72.211 1.297.455 1.733.73.436.271.756.584.959.939.203.351.305.764.305 1.238 0 .77-.297 1.384-.89 1.841-.587.453-1.387.679-2.399.679a4.578 4.578 0 01-1.847-.368c-.558-.25-.994-.593-1.307-1.029-.31-.435-.464-.943-.464-1.523h1.606c0 .525.174.931.52 1.219.348.288.845.431 1.492.431.56 0 .978-.112 1.257-.336.284-.229.426-.529.426-.901z" fill="#000"/></g><defs><clipPath id="clip0"><path fill="#fff" d="M0 0h110v110H0z"/></clipPath></defs></svg>