<svg width="110" height="110" fill="none" xmlns="http://www.w3.org/2000/svg"><path d="M94.96 7l-6.28 72.816A54.75 54.75 0 0155 91.332 54.748 54.748 0 0121.57 80.008L15.276 7H94.96z" fill="#E64C18"/><path d="M55.117 13.827v75.822l26.193-7.394 5.843-68.428H55.117z" fill="#F36518"/><path d="M30.272 23.34l2.568 30.414h34.14l-1.117 12.563-10.745 2.91-11.191-3.135-.281-7.833H33.22l1.305 15.443 20.592 5.82 20.591-5.82 2.552-30.217H42.309l-.893-9.848 37.695-.198.852-10.1H30.272z" fill="#fff"/><path d="M46.093 110h-1.6v-4.107h-4.132V110h-1.606v-9.242h1.606v3.846h4.132v-3.846h1.6V110zm8.391-7.947h-2.882V110H50.01v-7.947h-2.856v-1.295h7.331v1.295zm3.301-1.295l2.666 7.084 2.66-7.084h2.075V110h-1.6v-3.047l.16-4.075-2.73 7.122h-1.149l-2.723-7.116.159 4.069V110h-1.6v-9.242h2.082zm10.912 7.96h4.196V110H67.09v-9.242h1.606v7.96z" fill="#000"/></svg>