<svg width="110" height="132" fill="none" xmlns="http://www.w3.org/2000/svg"><path d="M94.96 25.668l-6.28 72.816A54.751 54.751 0 0155 110a54.751 54.751 0 01-33.68-11.516l-6.28-72.816h79.92z" fill="#DAB92C"/><path d="M55 32.514v76.046l26.269-7.416 5.86-68.63h-32.13z" fill="#FFD93A"/><path d="M43.935 82.676L42.897 38h9.081v57l-18.94-5.135L32 73.945h8.303v8.217l3.632.514zM80 48.014V38H57.168l-.779 31.068h10.12l-.52 13.094-8.821 2.568V95l18.421-5.135 2.595-31.838H67.287V48.013H80z" fill="#fff"/><path d="M29.36 119.758h1.6v6.481c0 .884-.277 1.587-.832 2.107-.55.521-1.278.781-2.183.781-.965 0-1.71-.243-2.235-.73-.524-.487-.787-1.164-.787-2.031h1.6c0 .491.12.861.362 1.111.245.245.599.368 1.06.368.431 0 .774-.142 1.028-.426.258-.287.387-.683.387-1.187v-6.474zM36.755 129c-.067-.131-.127-.345-.177-.641a2.401 2.401 0 01-1.803.768c-.69 0-1.253-.197-1.689-.59a1.89 1.89 0 01-.653-1.46c0-.732.27-1.293.812-1.682.546-.394 1.325-.591 2.336-.591h.946v-.45c0-.356-.1-.639-.299-.851-.198-.216-.5-.324-.907-.324-.351 0-.64.089-.863.267a.805.805 0 00-.337.666H32.58c0-.376.124-.728.374-1.053.25-.33.588-.589 1.016-.775a3.604 3.604 0 011.44-.279c.805 0 1.446.203 1.924.609.478.402.724.969.736 1.701v3.098c0 .618.087 1.111.26 1.479V129h-1.574zm-1.695-1.111c.305 0 .59-.074.857-.222.271-.148.474-.347.61-.597v-1.295h-.832c-.571 0-1 .1-1.288.299-.288.199-.432.48-.432.844 0 .296.097.533.292.711.199.173.463.26.793.26zm6.945-.844l1.453-4.913h1.594L42.672 129h-1.34l-2.4-6.868h1.6l1.473 4.913zM50.022 129c-.068-.131-.127-.345-.178-.641a2.401 2.401 0 01-1.803.768c-.69 0-1.252-.197-1.688-.59a1.89 1.89 0 01-.654-1.46c0-.732.271-1.293.813-1.682.546-.394 1.324-.591 2.336-.591h.946v-.45c0-.356-.1-.639-.299-.851-.199-.216-.501-.324-.908-.324-.35 0-.639.089-.863.267a.805.805 0 00-.336.666h-1.543c0-.376.125-.728.375-1.053.25-.33.588-.589 1.015-.775a3.604 3.604 0 011.441-.279c.804 0 1.445.203 1.924.609.478.402.723.969.736 1.701v3.098c0 .618.087 1.111.26 1.479V129h-1.574zm-1.695-1.111c.305 0 .59-.074.857-.222.27-.148.474-.347.61-.597v-1.295h-.832c-.571 0-1 .1-1.289.299-.287.199-.431.48-.431.844 0 .296.097.533.292.711.199.173.463.26.793.26zm9.604-1.269c0-.407-.144-.72-.431-.94-.284-.22-.798-.442-1.543-.666-.745-.225-1.337-.474-1.777-.749-.842-.529-1.264-1.219-1.264-2.07 0-.744.303-1.358.908-1.841.61-.482 1.399-.723 2.368-.723.643 0 1.216.118 1.72.355s.9.576 1.187 1.016c.288.436.432.92.432 1.454h-1.6c0-.483-.152-.859-.457-1.13-.3-.275-.732-.413-1.295-.413-.525 0-.933.112-1.225.337-.288.224-.431.537-.431.939 0 .339.156.622.47.851.312.224.829.444 1.548.66.72.211 1.297.455 1.733.73.436.271.755.584.958.939.203.351.305.764.305 1.238 0 .77-.296 1.384-.889 1.841-.588.453-1.388.679-2.399.679a4.578 4.578 0 01-1.847-.368c-.559-.25-.995-.593-1.308-1.029-.309-.435-.463-.943-.463-1.523h1.606c0 .525.173.931.52 1.219.347.288.845.431 1.492.431.559 0 .978-.112 1.257-.336.283-.229.425-.529.425-.901zm5.688 1.276c.385 0 .704-.113.958-.337.254-.224.39-.501.406-.831h1.454a2.28 2.28 0 01-.4 1.199c-.25.368-.588.66-1.016.876a3.025 3.025 0 01-1.383.324c-.96 0-1.723-.311-2.285-.933-.563-.622-.845-1.481-.845-2.577v-.159c0-1.045.28-1.881.838-2.507.559-.631 1.32-.946 2.285-.946.817 0 1.481.239 1.993.717.517.474.788 1.098.813 1.873h-1.454c-.017-.394-.152-.718-.406-.971-.25-.254-.569-.381-.958-.381-.5 0-.885.182-1.156.546-.27.359-.408.907-.412 1.644v.247c0 .745.133 1.301.4 1.67.27.364.66.546 1.168.546zm7.579-4.355a3.802 3.802 0 00-.629-.051c-.706 0-1.182.271-1.428.813V129H67.6v-6.868h1.472l.038.768c.373-.597.889-.895 1.55-.895.22 0 .401.03.545.089l-.006 1.447zM73.813 129H72.27v-6.868h1.543V129zm-1.638-8.652c0-.237.074-.434.222-.59.153-.157.369-.235.648-.235.28 0 .495.078.647.235a.81.81 0 01.229.59.803.803 0 01-.229.584c-.152.152-.368.229-.647.229-.28 0-.495-.077-.648-.229a.815.815 0 01-.222-.584zm9.338 5.288c0 1.062-.242 1.91-.724 2.545-.482.631-1.13.946-1.942.946-.754 0-1.357-.248-1.81-.743v3.257h-1.542v-9.509h1.422l.064.698c.452-.55 1.068-.825 1.847-.825.837 0 1.493.313 1.967.939.479.622.718 1.488.718 2.597v.095zm-1.536-.134c0-.685-.138-1.229-.413-1.631-.27-.402-.66-.603-1.168-.603-.63 0-1.083.26-1.358.781v3.047c.279.533.736.8 1.37.8.492 0 .875-.197 1.15-.591.279-.398.419-.999.419-1.803zm4.78-5.04v1.67h1.212v1.142h-1.213v3.834c0 .263.051.453.153.572.105.114.292.171.558.171.178 0 .358-.021.54-.063v1.193c-.351.097-.69.146-1.016.146-1.185 0-1.777-.654-1.777-1.961v-3.892h-1.13v-1.142h1.13v-1.67h1.542z" fill="#000"/></svg>